<svg width="164" height="48" viewBox="0 0 164 48" fill="none" xmlns="http://www.w3.org/2000/svg">
<g clip-path="url(#clip0_81_58)">
<path d="M45.5508 14.0131H53.1729C58.0322 14.0131 62.0465 16.8247 62.0465 23.2442V24.5931C62.0465 31.0613 58.2923 33.9704 53.3192 33.9704H45.5508V14.0131ZM49.8088 17.6373V30.33H53.0754C55.8382 30.33 57.691 28.526 57.691 24.5118V23.4555C57.691 19.4412 55.7407 17.6373 52.9291 17.6373H49.8088ZM64.3055 17.8323H67.7184L68.2709 21.5865C68.921 19.0349 70.5787 17.6698 73.5853 17.6698H74.6417V21.9765H72.8865C69.4248 21.9765 68.5797 23.1792 68.5797 26.5921V34.0192H64.3705V17.8323H64.3055ZM75.4868 26.2508V25.7957C75.4868 20.3838 78.9484 17.426 83.6615 17.426C88.4721 17.426 91.8362 20.3838 91.8362 25.7957V26.2508C91.8362 31.5652 88.5696 34.4255 83.6615 34.4255C78.4446 34.3767 75.4868 31.5814 75.4868 26.2508ZM87.5294 26.202V25.7957C87.5294 22.7891 86.018 20.9852 83.6127 20.9852C81.2562 20.9852 79.696 22.6429 79.696 25.7957V26.202C79.696 29.1111 81.2075 30.7688 83.6127 30.7688C86.018 30.7201 87.5294 29.1111 87.5294 26.202ZM94.0465 17.8323H97.5569L97.9632 20.8877C98.8083 18.8399 100.612 17.426 103.278 17.426C107.389 17.426 110.103 20.3838 110.103 25.8607V26.3158C110.103 31.6302 107.097 34.4417 103.278 34.4417C100.726 34.4417 98.9708 33.2879 98.1094 31.4351V39.6098H93.9977L94.0465 17.8323ZM105.829 26.202V25.8445C105.829 22.6266 104.171 21.0339 101.961 21.0339C99.6046 21.0339 98.0444 22.8379 98.0444 25.8445V26.1533C98.0444 29.0136 99.5559 30.8176 101.912 30.8176C104.334 30.7688 105.829 29.2249 105.829 26.202ZM116.328 31.0288L115.97 33.9867H112.362V12.4204H116.474V20.6926C117.384 18.5799 119.188 17.426 121.74 17.426C125.608 17.4748 128.468 20.1401 128.468 25.5032V26.007C128.468 31.3701 125.754 34.4417 121.642 34.4417C118.928 34.3767 117.173 33.1253 116.328 31.0288ZM124.145 26.007V25.6007C124.145 22.6429 122.536 20.9852 120.277 20.9852C117.969 20.9852 116.36 22.8379 116.36 25.6495V26.007C116.36 29.0136 117.921 30.7688 120.228 30.7688C122.699 30.7688 124.145 29.2249 124.145 26.007ZM130.272 26.2508V25.7957C130.272 20.3838 133.734 17.426 138.447 17.426C143.257 17.426 146.621 20.3838 146.621 25.7957V26.2508C146.621 31.5652 143.306 34.4255 138.447 34.4255C133.23 34.3767 130.272 31.5814 130.272 26.2508ZM142.347 26.202V25.7957C142.347 22.7891 140.836 20.9852 138.43 20.9852C136.074 20.9852 134.514 22.6429 134.514 25.7957V26.202C134.514 29.1111 136.025 30.7688 138.43 30.7688C140.852 30.7201 142.347 29.1111 142.347 26.202ZM152.131 25.6007L146.459 17.8323H151.318L154.585 22.6916L157.9 17.8323H162.711L156.958 25.5519L163.02 33.9867H158.258L154.552 28.6236L150.944 33.9867H145.971L152.131 25.6007Z" fill="black"/>
<path d="M19.3522 14.0132L9.92611 20.0264L19.3522 26.0396L9.92611 32.0528L0.5 26.0071L9.92611 19.9939L0.5 14.0132L9.92611 8L19.3522 14.0132ZM9.87735 33.9868L19.3035 27.9736L28.7296 33.9868L19.3035 40L9.87735 33.9868ZM19.3522 26.0071L28.7783 19.9939L19.3522 14.0132L28.7296 8L38.1557 14.0132L28.7296 20.0264L38.1557 26.0396L28.7296 32.0528L19.3522 26.0071Z" fill="#0061FF"/>
</g>
<defs>
<clipPath id="clip0_81_58">
<rect width="163" height="48" fill="white" transform="translate(0.5)"/>
</clipPath>
</defs>
</svg>
