<svg width="122" height="48" viewBox="0 0 122 48" fill="none" xmlns="http://www.w3.org/2000/svg">
<g clip-path="url(#clip0_81_52)">
<path d="M38.4243 32.4263L39.8924 28.9949C41.4999 30.1853 43.5966 30.8154 45.6937 30.8154C47.2315 30.8154 48.2099 30.2204 48.2099 29.3101C48.1749 26.7889 38.9486 28.7498 38.8784 22.4112C38.8434 19.1897 41.7094 16.7036 45.7639 16.7036C48.1749 16.7036 50.5868 17.2991 52.299 18.6649L50.9271 22.1696C49.3518 21.1566 47.406 20.4503 45.5539 20.4503C44.2958 20.4503 43.4567 21.0453 43.4567 21.8162C43.4918 24.3023 52.7887 22.9364 52.8935 28.9949C52.8935 32.2865 50.0971 34.5977 46.1128 34.5977C43.1775 34.5977 40.4864 33.8975 38.4238 32.4263H38.4243ZM96.8824 27.7523C96.5118 28.4108 95.9727 28.9588 95.3205 29.3402C94.6682 29.7216 93.9263 29.9226 93.1707 29.9227C90.8159 29.9227 88.9072 28.0099 88.9072 25.6506C88.9072 23.2913 90.8159 21.3786 93.1707 21.3786C93.9263 21.3787 94.6682 21.5797 95.3205 21.9611C95.9727 22.3425 96.5118 22.8905 96.8824 23.549L100.964 21.2834C99.4352 18.5511 96.519 16.7036 93.1707 16.7036C88.2391 16.7036 84.2412 20.709 84.2412 25.6506C84.2412 30.5918 88.2391 34.5977 93.1707 34.5977C96.519 34.5977 99.4352 32.7501 100.964 30.0179L96.8824 27.7523ZM55.542 34.2473H60.6446V9.25574H55.5425L55.542 34.2473ZM103.541 9.25574V34.2473H108.643V26.7599L114.69 34.2473H121.212L113.523 25.3524L120.652 17.0524H114.41L108.643 23.953V9.25574H103.541ZM76.3648 17.0535V19.085C75.5262 17.684 73.4642 16.7036 71.2973 16.7036C66.8238 16.7036 63.2941 20.6608 63.2941 25.6331C63.2941 30.6053 66.8238 34.5977 71.2973 34.5977C73.4642 34.5977 75.5262 33.6173 76.3648 32.2163V34.2473H81.4674V17.0535H76.3648ZM76.3648 27.7869C75.631 29.0124 74.0932 29.9222 72.381 29.9222C70.0257 29.9222 68.117 28.0099 68.117 25.6506C68.117 23.2913 70.0257 21.3786 72.381 21.3786C74.0932 21.3786 75.631 22.3239 76.3648 23.584V27.7869Z" fill="black"/>
<path d="M11.478 8.70361C9.82448 8.70361 8.48417 10.0469 8.48417 11.7035C8.48378 12.0971 8.5609 12.4868 8.71115 12.8506C8.86139 13.2143 9.08181 13.5449 9.35981 13.8235C9.63782 14.1021 9.96797 14.3231 10.3314 14.4741C10.6949 14.6251 11.0845 14.703 11.478 14.7034H14.4724V11.7035C14.4731 10.9086 14.158 10.1461 13.5965 9.58348C13.0349 9.0209 12.2729 8.70441 11.478 8.70361ZM11.478 16.7033H3.49388C1.8403 16.7033 0.5 18.0466 0.5 19.7037C0.5 21.3603 1.8403 22.7036 3.49388 22.7036H11.4785C13.1316 22.7036 14.4724 21.3603 14.4724 19.7037C14.4724 18.0466 13.1316 16.7033 11.478 16.7033Z" fill="#36C5F0"/>
<path d="M30.4412 19.7037C30.4412 18.0466 29.1004 16.7033 27.4468 16.7033C25.7932 16.7033 24.4529 18.0466 24.4529 19.7037V22.7036H27.4468C28.2417 22.7028 29.0037 22.3863 29.5652 21.8237C30.1268 21.2612 30.4418 20.4986 30.4412 19.7037ZM22.457 19.7037V11.7035C22.4577 10.9086 22.1426 10.1461 21.581 9.58348C21.0195 9.0209 20.2575 8.70441 19.4626 8.70361C17.8091 8.70361 16.4688 10.0469 16.4688 11.7035V19.7032C16.4688 21.3608 17.8091 22.7041 19.4626 22.7041C20.2575 22.7033 21.0195 22.3868 21.581 21.8242C22.1426 21.2617 22.4577 20.4991 22.457 19.7042" fill="#2EB67D"/>
<path d="M19.4626 38.7036C20.2575 38.7028 21.0195 38.3863 21.581 37.8237C22.1426 37.2612 22.4577 36.4986 22.457 35.7037C22.4577 34.9088 22.1426 34.1463 21.581 33.5837C21.0195 33.0211 20.2575 32.7046 19.4626 32.7038H16.4688V35.7037C16.4688 37.3603 17.8091 38.7036 19.4626 38.7036ZM19.4626 30.7039H27.4473C29.1004 30.7039 30.4412 29.3606 30.4412 27.7035C30.4418 26.9086 30.1268 26.1461 29.5652 25.5835C29.0037 25.0209 28.2417 24.7044 27.4468 24.7036H19.4626C17.8091 24.7036 16.4688 26.0469 16.4688 27.7035C16.4684 28.0971 16.5455 28.4868 16.6957 28.8506C16.846 29.2143 17.0664 29.5449 17.3444 29.8235C17.6224 30.1021 17.9526 30.3231 18.316 30.4741C18.6794 30.6251 19.0691 30.703 19.4626 30.7034" fill="#ECB22E"/>
<path d="M0.500002 27.7035C0.499606 28.0971 0.576732 28.4868 0.726974 28.8506C0.877217 29.2143 1.09763 29.5449 1.37564 29.8235C1.65365 30.1021 1.9838 30.3231 2.34725 30.4741C2.7107 30.6251 3.10032 30.703 3.49388 30.7034C4.28875 30.7026 5.05075 30.3861 5.61229 29.8235C6.17383 29.261 6.48892 28.4984 6.48826 27.7035V24.7036H3.49388C1.8403 24.7036 0.500002 26.0469 0.500002 27.7035ZM8.48417 27.7035V35.7032C8.48417 37.3603 9.82448 38.7036 11.4781 38.7036C12.2729 38.7028 13.0349 38.3863 13.5965 37.8237C14.158 37.2612 14.4731 36.4986 14.4724 35.7037V27.7035C14.4728 27.3099 14.3957 26.9201 14.2454 26.5563C14.0951 26.1925 13.8747 25.8619 13.5966 25.5833C13.3186 25.3048 12.9883 25.0837 12.6248 24.9327C12.2613 24.7818 11.8716 24.7039 11.4781 24.7036C9.82448 24.7036 8.48417 26.0469 8.48417 27.7035Z" fill="#E01E5A"/>
</g>
<defs>
<clipPath id="clip0_81_52">
<rect width="121" height="48" fill="white" transform="translate(0.5)"/>
</clipPath>
</defs>
</svg>
