<svg width="117" height="48" viewBox="0 0 117 48" fill="none" xmlns="http://www.w3.org/2000/svg">
<g clip-path="url(#clip0_81_61)">
<path d="M37.7464 21.4076C37.7464 19.346 35.6848 17.1469 32.2488 17.1469C28.4005 17.1469 24.0024 20.0332 23.3152 25.8057C22.628 31.5782 26.2014 34.1896 29.9123 34.1896C33.6232 34.1896 35.41 32.8152 37.3341 30.891C35.6848 28.8294 33.4858 29.7915 33.0735 29.9289C32.6611 30.2038 31.9739 30.4787 30.8744 30.4787C29.5 30.4787 27.9881 29.7915 27.9881 27.1801C37.0592 26.218 37.7464 23.4692 37.7464 21.4076ZM33.3483 21.6825C33.3483 22.3697 33.0735 23.4692 28.5379 24.019C29.5 20.5829 31.2867 20.3081 32.1114 20.3081C32.936 20.4455 33.3483 20.9953 33.3483 21.6825ZM18.0924 22.2322C18.0924 22.2322 16.1682 28.2796 16.0308 28.8294C16.0308 28.2796 14.519 17.4218 14.519 17.4218C11.2204 17.4218 9.43365 19.7583 8.609 22.2322C8.609 22.2322 6.27251 28.2796 6.13507 28.8294C5.99763 28.4171 5.72275 22.3697 5.72275 22.3697C5.44787 19.346 2.69905 17.4218 0.5 17.4218L3.24882 33.9147C6.68483 33.9147 8.609 31.5782 9.57109 29.1043C9.57109 29.1043 11.6327 23.7441 11.7701 23.4692C11.7701 23.7441 13.282 33.9147 13.282 33.9147C16.718 33.9147 18.6422 31.7156 19.6043 29.3791L24.4147 17.4218C20.8412 17.4218 19.0545 19.7583 18.0924 22.2322ZM50.5284 17.0095C48.4668 17.0095 46.8175 18.109 45.4431 19.8957L46.5427 10C43.6564 10 41.4573 12.4739 40.9076 16.0474L38.7085 33.7772C40.3578 33.7772 42.0071 33.3649 42.9692 32.128C43.7938 33.2275 45.0308 34.0521 46.8175 34.0521C51.628 34.0521 54.9265 28.5545 54.9265 23.3318C55.064 18.5213 52.7275 17.0095 50.5284 17.0095ZM49.9787 25.5308C49.4289 28.4171 47.9171 30.3412 46.2678 30.3412C44.7559 30.3412 44.0687 29.654 44.0687 29.654C44.3436 27.1801 44.6185 25.5308 45.1682 24.1564C45.718 22.782 47.0924 20.7204 48.4668 20.7204C49.8412 20.8578 50.5284 22.6446 49.9787 25.5308ZM67.0213 17.4218H63.7227V17.2844C63.9976 15.0853 64.41 13.9858 66.1967 13.8483C67.2962 13.7109 67.846 13.1611 67.9834 12.4739C68.1208 11.9242 68.3957 10.1374 68.3957 10.1374C61.6611 10.1374 59.5995 13.0237 59.0498 17.4218V17.5592H58.9123C57.8128 17.5592 56.5758 18.7962 56.4384 20.3081L56.3009 20.8578H58.5L56.5758 36.2512L56.0261 39C56.1635 39 56.1635 39 56.3009 39C59.4621 38.8626 61.3863 36.3886 61.936 32.8152L63.4479 20.7204H64.5474C65.5095 20.7204 66.7465 19.7583 67.0213 17.9716V17.4218ZM84.3389 17.1469C80.4905 17.1469 76.9171 20.0332 75.8175 24.4313C74.718 28.8294 76.3673 34.1896 82.0024 34.1896C87.6374 34.1896 90.936 28.6919 90.936 24.1564C90.7986 19.6209 87.7749 17.1469 84.3389 17.1469ZM85.8507 25.3934C85.7133 27.455 84.7512 30.4787 82.2772 30.4787C79.8033 30.4787 80.2156 26.9052 80.3531 25.2559C80.628 23.4692 81.59 20.8578 83.7891 20.8578C85.8507 20.8578 86.1256 23.1943 85.8507 25.3934ZM109.903 22.2322C109.903 22.2322 107.979 28.2796 107.841 28.8294C107.841 28.2796 106.329 17.4218 106.329 17.4218C103.031 17.4218 101.244 19.7583 100.419 22.2322C100.419 22.2322 98.0829 28.2796 97.9455 28.8294C97.9455 28.4171 97.5332 22.3697 97.5332 22.3697C97.3957 19.346 94.5095 17.5592 92.3104 17.5592L95.0592 34.0521C98.4953 34.0521 100.419 31.7156 101.382 29.2417C101.382 29.2417 103.443 23.8815 103.581 23.6066C103.581 23.8815 105.092 34.0521 105.092 34.0521C108.528 34.0521 110.453 31.8531 111.415 29.5166L115.95 17.4218C112.514 17.4218 110.727 19.7583 109.903 22.2322ZM70.1825 10.1374L67.4336 32.6777L66.8839 35.4265C67.0213 35.4265 67.0213 35.4265 67.1588 35.4265C70.1825 35.4265 72.3815 32.6777 72.6564 29.3791L74.3057 16.4597C74.718 12.6114 72.2441 10.1374 70.1825 10.1374Z" fill="#1B1B1B"/>
</g>
<defs>
<clipPath id="clip0_81_61">
<rect width="116" height="48" fill="white" transform="translate(0.5)"/>
</clipPath>
</defs>
</svg>
