<svg width="56" height="56" viewBox="0 0 56 56" fill="none" xmlns="http://www.w3.org/2000/svg">
<path d="M11.6962 29.7067C10.5651 28.5707 9.79589 27.1251 9.48555 25.5523C9.1752 23.9795 9.33765 22.3501 9.9524 20.8696C10.5671 19.389 11.6066 18.1238 12.9397 17.2334C14.2728 16.343 15.8398 15.8675 17.4429 15.8667H30.5469C32.699 15.8667 34.763 16.7216 36.2848 18.2434C37.8066 19.7652 38.6615 21.8292 38.6615 23.9814C38.6615 28.4614 35.0295 31.8667 30.5469 31.8667H23.9949" stroke="#3253A2" stroke-linecap="round" stroke-linejoin="round"/>
<path d="M44.2935 26.0267C45.4245 27.1627 46.1938 28.6083 46.5041 30.1811C46.8145 31.7539 46.652 33.3833 46.0373 34.8638C45.4225 36.3444 44.383 37.6096 43.0499 38.5C41.7168 39.3904 40.1499 39.8659 38.5468 39.8667H25.4428C23.2906 39.8667 21.2267 39.0118 19.7049 37.49C18.1831 35.9682 17.3281 33.9042 17.3281 31.752C17.3281 27.272 20.9601 23.8667 25.4428 23.8667H31.9948" stroke="#3253A2" stroke-linecap="round" stroke-linejoin="round"/>
</svg>
