<svg width="48" height="48" viewBox="0 0 48 48" fill="none" xmlns="http://www.w3.org/2000/svg">
<path fill-rule="evenodd" clip-rule="evenodd" d="M37.4286 35.4286V19.4286L26 8H14.5714C13.359 8 12.1962 8.48163 11.3389 9.33894C10.4816 10.1962 10 11.359 10 12.5714V35.4286C10 36.641 10.4816 37.8038 11.3389 38.6611C12.1962 39.5184 13.359 40 14.5714 40H32.8571C34.0696 40 35.2323 39.5184 36.0896 38.6611C36.9469 37.8038 37.4286 36.641 37.4286 35.4286Z" stroke="#3253A2" stroke-linecap="round" stroke-linejoin="round"/>
<path d="M26 8V14.8571C26 16.0696 26.4816 17.2323 27.3389 18.0896C28.1963 18.9469 29.359 19.4286 30.5714 19.4286H37.4286" stroke="#3253A2" stroke-linecap="round" stroke-linejoin="round"/>
</svg>
