<svg width="133" height="32" viewBox="0 0 133 32" fill="none" xmlns="http://www.w3.org/2000/svg">
<path d="M23.0078 14.5469C23.0078 14.7864 22.9368 15.0205 22.8037 15.2197C22.6707 15.4188 22.4816 15.574 22.2603 15.6657C22.039 15.7573 21.7955 15.7813 21.5606 15.7346C21.3257 15.6879 21.11 15.5725 20.9406 15.4032C20.7713 15.2338 20.6559 15.018 20.6092 14.7831C20.5625 14.5482 20.5865 14.3048 20.6781 14.0835C20.7698 13.8622 20.925 13.6731 21.1241 13.54C21.3233 13.407 21.5574 13.336 21.7969 13.336C22.118 13.336 22.426 13.4635 22.6531 13.6906C22.8802 13.9177 23.0078 14.2257 23.0078 14.5469ZM18.4062 8.49222H13.5625C13.3698 8.49222 13.185 8.56877 13.0487 8.70502C12.9125 8.84128 12.8359 9.02608 12.8359 9.21878C12.8359 9.41148 12.9125 9.59628 13.0487 9.73254C13.185 9.86879 13.3698 9.94534 13.5625 9.94534H18.4062C18.5989 9.94534 18.7838 9.86879 18.92 9.73254C19.0563 9.59628 19.1328 9.41148 19.1328 9.21878C19.1328 9.02608 19.0563 8.84128 18.92 8.70502C18.7838 8.56877 18.5989 8.49222 18.4062 8.49222ZM29.7891 14.0625V17.9375C29.7891 18.6441 29.5084 19.3217 29.0088 19.8213C28.5092 20.3209 27.8316 20.6016 27.125 20.6016H26.6685L24.6486 26.2579C24.531 26.5873 24.3143 26.8722 24.0284 27.0736C23.7424 27.275 23.4012 27.383 23.0514 27.3828H21.5111C21.1613 27.383 20.8201 27.275 20.5341 27.0736C20.2482 26.8722 20.0315 26.5873 19.9139 26.2579L19.6245 25.4453H12.3443L12.0549 26.2579C11.9372 26.5873 11.7206 26.8722 11.4346 27.0736C11.1487 27.275 10.8074 27.383 10.4577 27.3828H8.91734C8.56759 27.383 8.22634 27.275 7.94039 27.0736C7.65444 26.8722 7.43779 26.5873 7.32012 26.2579L5.78344 21.9554C4.27644 20.2654 3.36342 18.1289 3.18355 15.8717C2.75028 16.0166 2.37349 16.294 2.10644 16.6647C1.83939 17.0354 1.69557 17.4807 1.69531 17.9375C1.69531 18.1302 1.61876 18.315 1.48251 18.4513C1.34625 18.5875 1.16145 18.6641 0.96875 18.6641C0.776054 18.6641 0.59125 18.5875 0.454993 18.4513C0.318736 18.315 0.242188 18.1302 0.242188 17.9375C0.242244 17.0962 0.534319 16.281 1.06855 15.631C1.60278 14.9811 2.34604 14.5367 3.17145 14.3737C3.34145 11.7323 4.50975 9.25436 6.4394 7.44254C8.36905 5.63073 10.9156 4.62067 13.5625 4.61722H26.1562C26.3489 4.61722 26.5338 4.69377 26.67 4.83002C26.8063 4.96628 26.8828 5.15108 26.8828 5.34378C26.8828 5.53648 26.8063 5.72128 26.67 5.85754C26.5338 5.99379 26.3489 6.07034 26.1562 6.07034H22.7438C24.6352 7.18867 26.1239 8.87706 26.9966 10.8935C27.0693 11.0606 27.1371 11.2289 27.2001 11.3997C27.8933 11.4192 28.5516 11.7083 29.0351 12.2056C29.5185 12.7028 29.789 13.369 29.7891 14.0625ZM28.3359 14.0625C28.3359 13.7414 28.2084 13.4334 27.9813 13.2063C27.7542 12.9792 27.4462 12.8516 27.125 12.8516H26.6818C26.5271 12.8518 26.3763 12.8025 26.2515 12.711C26.1267 12.6196 26.0344 12.4906 25.9879 12.343C25.8954 12.0472 25.7871 11.7565 25.6634 11.4723C24.9689 9.86751 23.82 8.50095 22.3584 7.54107C20.8967 6.5812 19.1862 6.06995 17.4375 6.07034H13.5625C11.8233 6.07017 10.1217 6.57611 8.66509 7.52645C7.20852 8.47679 6.05997 9.83046 5.35954 11.4224C4.6591 13.0143 4.43705 14.7756 4.72046 16.4915C5.00387 18.2075 5.7805 19.8038 6.95563 21.086C7.0208 21.1558 7.07107 21.2382 7.10336 21.3282L8.68848 25.765C8.70466 25.8129 8.73543 25.8546 8.77647 25.8841C8.81752 25.9136 8.86678 25.9296 8.91734 25.9297H10.4577C10.5078 25.9299 10.5567 25.9144 10.5977 25.8856C10.6387 25.8567 10.6697 25.8159 10.6865 25.7687L11.1479 24.4766C11.1979 24.3351 11.2906 24.2125 11.4131 24.1258C11.5356 24.039 11.682 23.9924 11.8321 23.9922H20.1367C20.2868 23.9924 20.4332 24.039 20.5557 24.1258C20.6782 24.2125 20.7708 24.3351 20.8209 24.4766L21.2822 25.7711C21.299 25.8183 21.3301 25.8592 21.371 25.888C21.412 25.9169 21.461 25.9323 21.5111 25.9321H23.0514C23.1015 25.9323 23.1505 25.9169 23.1915 25.888C23.2324 25.8592 23.2635 25.8183 23.2803 25.7711L25.4721 19.6328C25.5221 19.4913 25.6147 19.3688 25.7373 19.282C25.8598 19.1953 26.0061 19.1486 26.1562 19.1485H27.125C27.4462 19.1485 27.7542 19.0209 27.9813 18.7938C28.2084 18.5667 28.3359 18.2587 28.3359 17.9375V14.0625Z" fill="#3253A2"/>
<path opacity="0.92" d="M37.6172 25C37.4339 25 37.2922 24.95 37.1922 24.85C37.0922 24.7333 37.0422 24.5917 37.0422 24.425V8.1C37.0422 7.91667 37.0922 7.775 37.1922 7.675C37.2922 7.55833 37.4339 7.5 37.6172 7.5H43.9672C45.2005 7.5 46.2672 7.7 47.1672 8.1C48.0839 8.5 48.7922 9.1 49.2922 9.9C49.7922 10.6833 50.0422 11.6667 50.0422 12.85C50.0422 14.0333 49.7922 15.0167 49.2922 15.8C48.7922 16.5833 48.0839 17.175 47.1672 17.575C46.2672 17.975 45.2005 18.175 43.9672 18.175H39.5422V24.425C39.5422 24.5917 39.4839 24.7333 39.3672 24.85C39.2672 24.95 39.1255 25 38.9422 25H37.6172ZM39.5172 16.075H43.8422C45.0755 16.075 46.0005 15.8 46.6172 15.25C47.2339 14.7 47.5422 13.9 47.5422 12.85C47.5422 11.8167 47.2422 11.0167 46.6422 10.45C46.0422 9.88333 45.1089 9.6 43.8422 9.6H39.5172V16.075ZM56.1381 25.25C55.3048 25.25 54.5464 25.0833 53.8631 24.75C53.1798 24.4167 52.6298 23.9667 52.2131 23.4C51.7964 22.8333 51.5881 22.1917 51.5881 21.475C51.5881 20.325 52.0548 19.4083 52.9881 18.725C53.9214 18.0417 55.1381 17.5917 56.6381 17.375L60.3631 16.85V16.125C60.3631 15.325 60.1298 14.7 59.6631 14.25C59.2131 13.8 58.4714 13.575 57.4381 13.575C56.6881 13.575 56.0798 13.725 55.6131 14.025C55.1631 14.325 54.8464 14.7083 54.6631 15.175C54.5631 15.425 54.3881 15.55 54.1381 15.55H53.0131C52.8298 15.55 52.6881 15.5 52.5881 15.4C52.5048 15.2833 52.4631 15.15 52.4631 15C52.4631 14.75 52.5548 14.4417 52.7381 14.075C52.9381 13.7083 53.2381 13.35 53.6381 13C54.0381 12.65 54.5464 12.3583 55.1631 12.125C55.7964 11.875 56.5631 11.75 57.4631 11.75C58.4631 11.75 59.3048 11.8833 59.9881 12.15C60.6714 12.4 61.2048 12.7417 61.5881 13.175C61.9881 13.6083 62.2714 14.1 62.4381 14.65C62.6214 15.2 62.7131 15.7583 62.7131 16.325V24.425C62.7131 24.5917 62.6548 24.7333 62.5381 24.85C62.4381 24.95 62.3048 25 62.1381 25H60.9881C60.8048 25 60.6631 24.95 60.5631 24.85C60.4631 24.7333 60.4131 24.5917 60.4131 24.425V23.35C60.1964 23.65 59.9048 23.95 59.5381 24.25C59.1714 24.5333 58.7131 24.775 58.1631 24.975C57.6131 25.1583 56.9381 25.25 56.1381 25.25ZM56.6631 23.375C57.3464 23.375 57.9714 23.2333 58.5381 22.95C59.1048 22.65 59.5464 22.1917 59.8631 21.575C60.1964 20.9583 60.3631 20.1833 60.3631 19.25V18.55L57.4631 18.975C56.2798 19.1417 55.3881 19.425 54.7881 19.825C54.1881 20.2083 53.8881 20.7 53.8881 21.3C53.8881 21.7667 54.0214 22.1583 54.2881 22.475C54.5714 22.775 54.9214 23 55.3381 23.15C55.7714 23.3 56.2131 23.375 56.6631 23.375ZM68.3135 29.75C68.1801 29.75 68.0635 29.7 67.9635 29.6C67.8635 29.5 67.8135 29.3833 67.8135 29.25C67.8135 29.1833 67.8218 29.1167 67.8385 29.05C67.8551 28.9833 67.8885 28.9 67.9385 28.8L69.8635 24.225L65.0885 12.95C65.0051 12.75 64.9635 12.6083 64.9635 12.525C64.9635 12.375 65.0135 12.25 65.1135 12.15C65.2135 12.05 65.3385 12 65.4885 12H66.7135C66.8801 12 67.0135 12.0417 67.1135 12.125C67.2135 12.2083 67.2801 12.3083 67.3135 12.425L71.1135 21.525L75.0135 12.425C75.0635 12.3083 75.1301 12.2083 75.2135 12.125C75.3135 12.0417 75.4551 12 75.6385 12H76.8135C76.9635 12 77.0885 12.05 77.1885 12.15C77.2885 12.25 77.3385 12.3667 77.3385 12.5C77.3385 12.5833 77.2968 12.7333 77.2135 12.95L70.1135 29.325C70.0635 29.4417 69.9885 29.5417 69.8885 29.625C69.8051 29.7083 69.6718 29.75 69.4885 29.75H68.3135ZM80.708 25C80.5247 25 80.383 24.95 80.283 24.85C80.183 24.7333 80.133 24.5917 80.133 24.425V8.1C80.133 7.91667 80.183 7.775 80.283 7.675C80.383 7.55833 80.5247 7.5 80.708 7.5H90.908C91.0913 7.5 91.233 7.55833 91.333 7.675C91.433 7.775 91.483 7.91667 91.483 8.1V9.1C91.483 9.28333 91.433 9.425 91.333 9.525C91.233 9.625 91.0913 9.675 90.908 9.675H82.558V15.5H90.408C90.5913 15.5 90.733 15.5583 90.833 15.675C90.933 15.775 90.983 15.9167 90.983 16.1V17.1C90.983 17.2667 90.933 17.4083 90.833 17.525C90.733 17.625 90.5913 17.675 90.408 17.675H82.558V24.425C82.558 24.5917 82.4997 24.7333 82.383 24.85C82.283 24.95 82.1413 25 81.958 25H80.708ZM95.0076 25C94.841 25 94.6993 24.95 94.5826 24.85C94.4826 24.7333 94.4326 24.5917 94.4326 24.425V7.825C94.4326 7.65833 94.4826 7.525 94.5826 7.425C94.6993 7.30833 94.841 7.25 95.0076 7.25H96.1826C96.366 7.25 96.5076 7.30833 96.6076 7.425C96.7076 7.525 96.7576 7.65833 96.7576 7.825V24.425C96.7576 24.5917 96.7076 24.7333 96.6076 24.85C96.5076 24.95 96.366 25 96.1826 25H95.0076ZM105.812 25.25C104.545 25.25 103.487 25.0083 102.637 24.525C101.787 24.0417 101.137 23.375 100.687 22.525C100.237 21.6583 99.9867 20.675 99.9367 19.575C99.9201 19.2917 99.9117 18.9333 99.9117 18.5C99.9117 18.05 99.9201 17.6917 99.9367 17.425C99.9867 16.3083 100.237 15.325 100.687 14.475C101.153 13.625 101.812 12.9583 102.662 12.475C103.512 11.9917 104.562 11.75 105.812 11.75C107.062 11.75 108.112 11.9917 108.962 12.475C109.812 12.9583 110.462 13.625 110.912 14.475C111.378 15.325 111.637 16.3083 111.687 17.425C111.703 17.6917 111.712 18.05 111.712 18.5C111.712 18.9333 111.703 19.2917 111.687 19.575C111.637 20.675 111.387 21.6583 110.937 22.525C110.487 23.375 109.837 24.0417 108.987 24.525C108.137 25.0083 107.078 25.25 105.812 25.25ZM105.812 23.325C106.845 23.325 107.67 23 108.287 22.35C108.903 21.6833 109.237 20.7167 109.287 19.45C109.303 19.2 109.312 18.8833 109.312 18.5C109.312 18.1167 109.303 17.8 109.287 17.55C109.237 16.2833 108.903 15.325 108.287 14.675C107.67 14.0083 106.845 13.675 105.812 13.675C104.778 13.675 103.945 14.0083 103.312 14.675C102.695 15.325 102.37 16.2833 102.337 17.55C102.32 17.8 102.312 18.1167 102.312 18.5C102.312 18.8833 102.32 19.2 102.337 19.45C102.37 20.7167 102.695 21.6833 103.312 22.35C103.945 23 104.778 23.325 105.812 23.325ZM117.95 25C117.734 25 117.567 24.95 117.45 24.85C117.334 24.7333 117.234 24.575 117.15 24.375L113.6 12.775C113.567 12.6917 113.55 12.6083 113.55 12.525C113.55 12.375 113.6 12.25 113.7 12.15C113.817 12.05 113.942 12 114.075 12H115.175C115.359 12 115.5 12.05 115.6 12.15C115.7 12.25 115.767 12.3417 115.8 12.425L118.575 21.85L121.55 12.525C121.584 12.4083 121.65 12.2917 121.75 12.175C121.867 12.0583 122.034 12 122.25 12H123.1C123.317 12 123.484 12.0583 123.6 12.175C123.717 12.2917 123.784 12.4083 123.8 12.525L126.775 21.85L129.55 12.425C129.567 12.3417 129.625 12.25 129.725 12.15C129.825 12.05 129.967 12 130.15 12H131.25C131.4 12 131.525 12.05 131.625 12.15C131.725 12.25 131.775 12.375 131.775 12.525C131.775 12.6083 131.759 12.6917 131.725 12.775L128.175 24.375C128.125 24.575 128.034 24.7333 127.9 24.85C127.784 24.95 127.609 25 127.375 25H126.4C126.184 25 126 24.95 125.85 24.85C125.717 24.7333 125.625 24.575 125.575 24.375L122.675 15.425L119.775 24.375C119.709 24.575 119.609 24.7333 119.475 24.85C119.342 24.95 119.159 25 118.925 25H117.95Z" fill="#3253A2"/>
</svg>
