<svg width="32" height="32" viewBox="0 0 32 32" fill="none" xmlns="http://www.w3.org/2000/svg">
<path d="M12.7715 12.5448V19.4552C12.7715 19.9503 12.9975 20.3271 13.4496 20.5854C13.9017 20.8437 14.343 20.8222 14.7736 20.5208L20.134 17.0979C20.543 16.8396 20.7475 16.4736 20.7475 16C20.7475 15.5264 20.543 15.1604 20.134 14.9021L14.7736 11.4791C14.343 11.1778 13.9017 11.1562 13.4496 11.4146C12.9975 11.6729 12.7715 12.0496 12.7715 12.5448ZM16.0007 28.9166C14.2138 28.9166 12.5347 28.5774 10.9632 27.8988C9.39162 27.2203 8.02461 26.3002 6.86211 25.1385C5.69961 23.976 4.77951 22.609 4.10182 21.0375C3.42412 19.466 3.08485 17.7868 3.08398 16C3.08398 14.2132 3.42326 12.534 4.10182 10.9625C4.78037 9.39095 5.70047 8.02394 6.86211 6.86144C8.02461 5.69894 9.39162 4.77884 10.9632 4.10115C12.5347 3.42345 14.2138 3.08417 16.0007 3.08331C17.7875 3.08331 19.4666 3.42259 21.0382 4.10115C22.6097 4.7797 23.9767 5.6998 25.1392 6.86144C26.3017 8.02394 27.2222 9.39095 27.9008 10.9625C28.5793 12.534 28.9182 14.2132 28.9173 16C28.9173 17.7868 28.578 19.466 27.8995 21.0375C27.2209 22.609 26.3008 23.976 25.1392 25.1385C23.9767 26.301 22.6097 27.2215 21.0382 27.9001C19.4666 28.5787 17.7875 28.9175 16.0007 28.9166Z" fill="#3F68CA"/>
</svg>
