<svg width="25" height="26" viewBox="0 0 25 26" fill="none" xmlns="http://www.w3.org/2000/svg">
<path d="M12.5004 22.5238C17.7602 22.5238 22.0242 18.2599 22.0242 13C22.0242 7.74015 17.7602 3.4762 12.5004 3.4762C7.24052 3.4762 2.97656 7.74015 2.97656 13C2.97656 18.2599 7.24052 22.5238 12.5004 22.5238Z" stroke="#3253A2" stroke-linecap="round" stroke-linejoin="round"/>
<path d="M9.52446 11.2143C10.1819 11.2143 10.7149 10.6813 10.7149 10.0238C10.7149 9.36634 10.1819 8.83334 9.52446 8.83334C8.86698 8.83334 8.33398 9.36634 8.33398 10.0238C8.33398 10.6813 8.86698 11.2143 9.52446 11.2143Z" fill="#3253A2"/>
<path d="M15.4756 11.2143C16.1331 11.2143 16.6661 10.6813 16.6661 10.0238C16.6661 9.36634 16.1331 8.83334 15.4756 8.83334C14.8182 8.83334 14.2852 9.36634 14.2852 10.0238C14.2852 10.6813 14.8182 11.2143 15.4756 11.2143Z" fill="#3253A2"/>
<path fill-rule="evenodd" clip-rule="evenodd" d="M7.73828 15.381C8.53114 17.7619 10.1192 18.9524 12.5002 18.9524C14.8811 18.9524 16.4692 17.7619 17.2621 15.381H7.73828Z" stroke="#3253A2" stroke-linecap="round" stroke-linejoin="round"/>
</svg>
