<svg width="25" height="26" viewBox="0 0 25 26" fill="none" xmlns="http://www.w3.org/2000/svg">
<path d="M12.9766 23.4762C18.4994 23.4762 22.9766 18.999 22.9766 13.4762C22.9766 7.95335 18.4994 3.4762 12.9766 3.4762C7.45371 3.4762 2.97656 7.95335 2.97656 13.4762C2.97656 18.999 7.45371 23.4762 12.9766 23.4762Z" stroke="#3253A2" stroke-linecap="round" stroke-linejoin="round"/>
<path d="M12.9766 18.4762C15.738 18.4762 17.9766 16.2376 17.9766 13.4762C17.9766 10.7148 15.738 8.4762 12.9766 8.4762C10.2151 8.4762 7.97656 10.7148 7.97656 13.4762C7.97656 16.2376 10.2151 18.4762 12.9766 18.4762Z" stroke="#3253A2" stroke-linecap="round" stroke-linejoin="round"/>
<path d="M16.7266 9.7262L19.8516 6.6012M16.7266 17.2262L19.8516 20.3512M9.22656 17.2262L6.10156 20.3512M9.22656 9.7262L6.10156 6.6012" stroke="#3253A2" stroke-linecap="round" stroke-linejoin="round"/>
</svg>
