<svg width="25" height="26" viewBox="0 0 25 26" fill="none" xmlns="http://www.w3.org/2000/svg">
<path d="M12.4993 13C13.4466 13 14.355 12.6237 15.0247 11.954C15.6945 11.2842 16.0708 10.3758 16.0708 9.42858V7.04762C16.0708 6.10042 15.6945 5.19202 15.0247 4.52224C14.355 3.85247 13.4466 3.4762 12.4993 3.4762C11.5521 3.4762 10.6437 3.85247 9.97397 4.52224C9.30419 5.19202 8.92792 6.10042 8.92792 7.04762V9.42858C8.92792 10.3758 9.30419 11.2842 9.97397 11.954C10.6437 12.6237 11.5521 13 12.4993 13ZM12.4993 13C16.4446 13 20.8327 15.4821 20.8327 19.2762V20.1429C20.8327 20.4586 20.7073 20.7614 20.484 20.9847C20.2607 21.2079 19.9579 21.3333 19.6422 21.3333H5.35649C5.04076 21.3333 4.73796 21.2079 4.5147 20.9847C4.29144 20.7614 4.16602 20.4586 4.16602 20.1429V19.2762C4.16602 15.4821 8.55411 13 12.4993 13Z" stroke="#3253A2" stroke-linecap="round" stroke-linejoin="round"/>
</svg>
