<svg width="24" height="25" viewBox="0 0 24 25" fill="none" xmlns="http://www.w3.org/2000/svg">
<path d="M22.4591 6.66699C21.6891 7.01699 20.8591 7.24699 19.9991 7.35699C20.8791 6.82699 21.5591 5.98699 21.8791 4.97699C21.0491 5.47699 20.1291 5.82699 19.1591 6.02699C18.3691 5.16699 17.2591 4.66699 15.9991 4.66699C13.6491 4.66699 11.7291 6.58699 11.7291 8.95699C11.7291 9.29699 11.7691 9.62699 11.8391 9.93699C8.27906 9.75699 5.10906 8.04699 2.99906 5.45699C2.62906 6.08699 2.41906 6.82699 2.41906 7.60699C2.41906 9.09699 3.16906 10.417 4.32906 11.167C3.61906 11.167 2.95906 10.967 2.37906 10.667V10.697C2.37906 12.777 3.85906 14.517 5.81906 14.907C5.18979 15.0792 4.52916 15.1032 3.88906 14.977C4.16067 15.8295 4.6926 16.5754 5.41008 17.1099C6.12756 17.6444 6.99451 17.9407 7.88906 17.957C6.37269 19.1574 4.49306 19.8063 2.55906 19.797C2.21906 19.797 1.87906 19.777 1.53906 19.737C3.43906 20.957 5.69906 21.667 8.11906 21.667C15.9991 21.667 20.3291 15.127 20.3291 9.45699C20.3291 9.26699 20.3291 9.08699 20.3191 8.89699C21.1591 8.29699 21.8791 7.53699 22.4591 6.66699Z" fill="#3253A2"/>
</svg>
