<svg width="24" height="25" viewBox="0 0 24 25" fill="none" xmlns="http://www.w3.org/2000/svg">
<path d="M10 15.667L15.19 12.667L10 9.66699V15.667ZM21.56 7.83699C21.69 8.30699 21.78 8.93699 21.84 9.73699C21.91 10.537 21.94 11.227 21.94 11.827L22 12.667C22 14.857 21.84 16.467 21.56 17.497C21.31 18.397 20.73 18.977 19.83 19.227C19.36 19.357 18.5 19.447 17.18 19.507C15.88 19.577 14.69 19.607 13.59 19.607L12 19.667C7.81 19.667 5.2 19.507 4.17 19.227C3.27 18.977 2.69 18.397 2.44 17.497C2.31 17.027 2.22 16.397 2.16 15.597C2.09 14.797 2.06 14.107 2.06 13.507L2 12.667C2 10.477 2.16 8.86699 2.44 7.83699C2.69 6.93699 3.27 6.35699 4.17 6.10699C4.64 5.97699 5.5 5.88699 6.82 5.82699C8.12 5.75699 9.31 5.72699 10.41 5.72699L12 5.66699C16.19 5.66699 18.8 5.82699 19.83 6.10699C20.73 6.35699 21.31 6.93699 21.56 7.83699Z" fill="#3253A2"/>
</svg>
